<svg xmlns="http://www.w3.org/2000/svg" width="125" height="62" viewBox="0 0 125 62" fill="none"><g id="Asset 2 1" clip-path="url(#clip0_1719_6108)"><g id="Layer 2"><g id="Layer 1"><path id="Vector" d="M20.7568 49.6912H15.8509V47.5932C14.3198 49.2711 12.122 50.1283 9.68977 50.1283C4.35405 50.1186 0 45.4394 0 39.665C0 33.8519 4.2759 29.0925 10.3955 29.0925C16.5151 29.0925 20.7568 33.8519 20.7568 39.665V49.6912ZM10.3955 33.9296C7.5335 33.9296 5.21851 36.3869 5.21851 39.7039C5.21851 42.9019 7.5335 45.3592 10.3955 45.3592C13.2575 45.3592 15.5749 42.8242 15.5749 39.7039C15.5749 36.5059 13.2599 33.9296 10.3955 33.9296Z" fill="#434345"></path><path id="Vector_2" d="M23.3403 44.6963C24.6737 44.8153 25.8507 44.6963 26.5955 43.9679C27.1059 43.4992 27.6162 42.5644 27.6162 39.6383C27.6162 36.9843 27.8897 33.9417 30.2438 31.7175C31.9312 30.0808 34.1681 29.4179 37.0813 29.651V34.6435C35.6284 34.4881 34.571 34.7625 33.8237 35.5031C33.3524 36.0106 32.803 36.7512 32.803 39.6311C32.803 42.2827 32.5295 45.5996 30.2145 47.7438C28.5271 49.344 26.2121 49.8903 23.3501 49.6864L23.3403 44.6963Z" fill="#434345"></path><path id="Vector_3" d="M50.2902 50.1187C47.9361 50.1187 45.9362 49.3392 44.405 47.7778V59.562H39.1865V39.5801C39.1865 33.8058 43.4624 29.0853 49.5845 29.0853C55.665 29.0853 59.9409 33.8058 59.9409 39.5801C59.9409 45.4079 55.6259 50.1187 50.2902 50.1187ZM49.5845 33.9296C46.72 33.9296 44.405 36.4647 44.405 39.5874C44.405 42.7854 46.72 45.3593 49.5845 45.3593C52.4489 45.3593 54.7615 42.8631 54.7615 39.5874C54.7615 36.3482 52.4465 33.9296 49.5845 33.9296Z" fill="#434345"></path><path id="Vector_4" d="M68.803 49.6913H63.626V29.6001H68.803V49.6913Z" fill="#434345"></path><path id="Vector_5" d="M84.1407 34.0462C80.8465 33.461 78.6487 35.2166 78.6487 38.065V49.6913H73.4692V38.065C73.4692 32.3708 77.4326 28.3909 84.1407 29.2092V34.0462Z" fill="#434345"></path><path id="Vector_6" d="M105.874 43.2928C104.697 47.3892 101.127 50.1574 96.1064 50.1574C90.3775 50.1574 85.7476 45.4782 85.7476 39.665C85.7476 33.8519 90.3873 29.0925 96.1064 29.0925C100.971 29.0925 105.049 32.1351 106.031 37.5185L91.7499 43.4871C92.2446 44.1614 92.8945 44.7082 93.6452 45.0816C94.3959 45.455 95.2256 45.6443 96.0649 45.6336C97.7523 45.6336 99.4837 44.893 100.343 43.2928H105.874ZM100.067 35.4132C99.5775 34.8356 98.9637 34.3746 98.2711 34.064C97.5784 33.7535 96.8245 33.6013 96.0649 33.6188C93.0833 33.6188 90.6926 35.9596 90.5729 39.3907L100.067 35.4132Z" fill="#434345"></path><path id="Vector_7" d="M117.948 37.3122H115.52V31.8098C115.52 31.2635 115.337 30.0202 113.757 30.0202C112.673 30.0202 111.919 30.7487 111.919 31.8098V37.3098H109.477V23.7117H111.919V28.3884C112.541 27.9147 113.303 27.6587 114.087 27.66C116.402 27.66 117.948 29.3233 117.948 31.8074V37.3122Z" fill="#6886B8"></path><path id="Vector_8" d="M125 29.9862C123.457 29.7118 122.429 30.535 122.429 31.8681V37.3122H120.004V31.8681C120.004 29.197 121.86 27.337 125 27.7207V29.9862Z" fill="#6886B8"></path><path id="Vector_9" d="M66.1898 6.02926C66.9788 6.02926 67.6183 5.39328 67.6183 4.60875C67.6183 3.82422 66.9788 3.18823 66.1898 3.18823C65.4008 3.18823 64.7612 3.82422 64.7612 4.60875C64.7612 5.39328 65.4008 6.02926 66.1898 6.02926Z" fill="#AD7F66"></path><path id="Vector_10" d="M67.6623 10.8712C68.5646 7.64183 69.9351 4.56043 71.7307 1.72401V1.70944V1.69973L71.782 1.60503C71.8695 1.44827 71.9158 1.272 71.9163 1.09267C71.916 0.829871 71.8206 0.575946 71.6477 0.377241C71.4747 0.178537 71.2357 0.0483043 70.9741 0.0103147C70.7126 -0.027675 70.4461 0.0291116 70.2232 0.170309C70.0003 0.311507 69.8359 0.5277 69.76 0.779427L69.7209 0.915408C69.7038 0.995539 69.6867 1.08053 69.6696 1.15823L69.6232 1.38406C69.5011 1.97897 69.3961 2.46948 69.3033 2.87499C69.1275 3.61803 68.9322 4.33193 68.7222 5.02397C68.688 5.11139 68.6587 5.18909 68.6269 5.2668C68.5952 5.3445 68.5366 5.49505 68.4828 5.63832C68.305 6.10308 67.9894 6.50312 67.5777 6.78539C67.166 7.06766 66.6777 7.21881 66.1776 7.21881C65.6775 7.21881 65.1893 7.06766 64.7776 6.78539C64.3659 6.50312 64.0502 6.10308 63.8724 5.63832C63.8187 5.49505 63.7723 5.37607 63.7283 5.26437L63.6355 5.02154C63.4231 4.33436 63.2277 3.61074 63.0519 2.8677C62.9591 2.45976 62.8541 1.96926 62.7295 1.37434L62.6856 1.1558C62.6661 1.05139 62.6441 0.946975 62.6245 0.842561L62.5952 0.762429C62.5193 0.510702 62.3549 0.29451 62.132 0.153312C61.9091 0.012114 61.6426 -0.0446726 61.3811 -0.00668294C61.1196 0.0313067 60.8805 0.161539 60.7076 0.360244C60.5346 0.558948 60.4393 0.812873 60.439 1.07567C60.4395 1.255 60.4857 1.43127 60.5733 1.58803L60.6343 1.70215C62.4353 4.5448 63.8092 7.63372 64.7124 10.8712C65.1665 10.6336 65.6719 10.5095 66.1849 10.5095C66.698 10.5095 67.2034 10.6336 67.6575 10.8712H67.6623Z" fill="#AD7F66"></path><path id="Vector_11" d="M57.0985 12.2067C57.3672 12.2938 57.6558 12.2997 57.9279 12.2237C58.1999 12.1477 58.4432 11.9931 58.6269 11.7796C58.8106 11.5661 58.9265 11.3031 58.9599 11.0241C58.9933 10.7451 58.9427 10.4624 58.8146 10.212C58.6864 9.96154 58.4864 9.75451 58.2399 9.6171C57.9934 9.47968 57.7115 9.41806 57.4297 9.44001C57.148 9.46197 56.8791 9.56653 56.6572 9.74045C56.4352 9.91438 56.2701 10.1499 56.1827 10.4171C56.0657 10.7752 56.0964 11.1648 56.2681 11.5004C56.4398 11.8359 56.7385 12.09 57.0985 12.2067Z" fill="#FAA962"></path><path id="Vector_12" d="M63.9799 11.4127C61.1705 9.56026 58.6475 7.31076 56.4903 4.73504V4.7229L56.4146 4.64519C56.2922 4.51444 56.1385 4.41669 55.9677 4.36109C55.8299 4.31638 55.6844 4.29912 55.5398 4.31032C55.3952 4.32151 55.2543 4.36094 55.125 4.42634C54.9957 4.49173 54.8807 4.58183 54.7865 4.69146C54.6922 4.80109 54.6207 4.92812 54.5758 5.06528C54.5021 5.28924 54.5037 5.53096 54.5804 5.75393C54.657 5.9769 54.8046 6.16902 55.0007 6.30125L55.1179 6.38381C55.1912 6.42023 55.2669 6.46394 55.3426 6.50765L55.5428 6.61935C56.0727 6.92045 56.5196 7.17055 56.8713 7.38424C57.5306 7.78247 58.1606 8.19041 58.7467 8.59835L58.9445 8.76104C59.0398 8.83875 59.1374 8.91888 59.2595 9.00387C59.6532 9.31469 59.9419 9.73768 60.0871 10.2162C60.2323 10.6947 60.2269 11.2059 60.0718 11.6814C59.9167 12.1568 59.6192 12.5737 59.2191 12.8764C58.8191 13.179 58.3356 13.3529 57.8334 13.3747L57.4305 13.3965L57.1863 13.4111C56.4537 13.4111 55.7211 13.3601 54.947 13.297C54.527 13.2581 54.0239 13.2047 53.4183 13.1391L53.1912 13.1124L52.8762 13.0736H52.7907H52.7468C52.4838 13.0717 52.2288 13.1638 52.0282 13.333C51.8276 13.5021 51.6947 13.7372 51.6536 13.9956C51.6125 14.2539 51.666 14.5183 51.8043 14.7408C51.9426 14.9633 52.1566 15.1291 52.4073 15.208C52.5791 15.2637 52.7624 15.2746 52.9397 15.2396L53.0227 15.225H53.0667C56.3367 14.4045 59.7094 14.0618 63.0788 14.2076C63.0485 14.0327 63.033 13.8556 63.0324 13.6782C63.0294 13.2567 63.1118 12.8389 63.2746 12.4497C63.4373 12.0605 63.6772 11.7078 63.9799 11.4127Z" fill="#FAA962"></path><path id="Vector_13" d="M53.0859 15.307L53.098 15.3238L53.0859 15.2808V15.307Z" fill="#7D2D8F"></path><path id="Vector_14" d="M61.6892 19.8192C61.3816 19.5988 60.9987 19.5085 60.6243 19.5681C60.25 19.6277 59.9146 19.8324 59.6916 20.1373C59.4692 20.4423 59.3777 20.8226 59.4372 21.1946C59.4967 21.5667 59.7024 21.9 60.0091 22.1212C60.3167 22.3279 60.693 22.4077 61.0586 22.3436C61.4242 22.2796 61.7505 22.0768 61.9685 21.778C62.1866 21.4793 62.2794 21.108 62.2272 20.7425C62.1751 20.377 61.9822 20.0459 61.6892 19.8192Z" fill="#ABD36F"></path><path id="Vector_15" d="M63.3524 15.0549C60.715 17.1414 57.7866 18.8354 54.6589 20.0838H54.6467L54.5466 20.1299C54.3752 20.2122 54.2283 20.3372 54.1201 20.4929C54.012 20.6485 53.9463 20.8294 53.9296 21.0179C53.9128 21.2064 53.9456 21.3959 54.0246 21.568C54.1037 21.7401 54.2263 21.8888 54.3805 21.9997C54.5722 22.138 54.8038 22.2108 55.0407 22.2073C55.2775 22.2038 55.5068 22.1241 55.6943 21.9802L55.8066 21.8953L55.9971 21.7204L56.1656 21.565C56.6174 21.1546 56.9934 20.8195 57.306 20.5427C57.8921 20.0425 58.4782 19.5714 59.0471 19.1441C59.1253 19.0906 59.1937 19.0469 59.2669 19.0032L59.6039 18.7847C60.0224 18.5124 60.5142 18.373 61.0141 18.385C61.5141 18.397 61.9985 18.5599 62.4033 18.852C62.808 19.144 63.1139 19.5516 63.2803 20.0205C63.4468 20.4894 63.4659 20.9976 63.3353 21.4776C63.2937 21.6257 63.262 21.7496 63.2303 21.8685C63.2107 21.9462 63.1912 22.024 63.1692 22.1114C62.925 22.7913 62.6662 23.4906 62.3707 24.1972C62.2022 24.5809 61.9995 25.0398 61.748 25.591L61.6527 25.7998C61.6088 25.8946 61.5648 25.9893 61.5184 26.084L61.4964 26.1665C61.4083 26.4149 61.4132 26.6866 61.5101 26.9317C61.6071 27.1768 61.7896 27.379 62.0243 27.5011C62.259 27.6233 62.5301 27.6572 62.7879 27.5967C63.0458 27.5362 63.273 27.3854 63.4281 27.1718C63.5316 27.0282 63.5978 26.8614 63.621 26.6862L63.6356 26.5575C63.8572 23.2146 64.5663 19.9215 65.7406 16.7814C65.2316 16.7075 64.7484 16.5118 64.3323 16.2111C63.9163 15.9103 63.58 15.5136 63.3524 15.0549Z" fill="#ABD36F"></path><path id="Vector_16" d="M54.6315 20.0078L54.6123 19.9576L54.6219 19.9911L54.6315 20.0078Z" fill="#ABD36F"></path><path id="Vector_17" d="M73.479 11.2961C73.5663 11.5639 73.7316 11.7999 73.9538 11.9743C74.1761 12.1486 74.4453 12.2535 74.7276 12.2757C75.0098 12.2978 75.2922 12.2363 75.5393 12.0987C75.7863 11.9612 75.9867 11.7539 76.1152 11.5031C76.2437 11.2523 76.2946 10.9692 76.2612 10.6897C76.2279 10.4101 76.1119 10.1467 75.928 9.93268C75.7441 9.71868 75.5005 9.56374 75.228 9.48745C74.9555 9.41117 74.6664 9.41696 74.3972 9.50411C74.0366 9.62086 73.7373 9.87517 73.5651 10.2112C73.393 10.5472 73.362 10.9374 73.479 11.2961Z" fill="#A67CB7"></path><path id="Vector_18" d="M69.3523 13.6564C69.3517 13.8338 69.3362 14.0109 69.3059 14.1857C72.6752 14.0399 76.048 14.3827 79.318 15.2032H79.3619H79.3961H79.445C79.6223 15.237 79.8053 15.2261 79.9773 15.1716C80.2307 15.0923 80.4467 14.9244 80.5852 14.699C80.7237 14.4736 80.7754 14.2059 80.7307 13.9455C80.686 13.6851 80.548 13.4496 80.3421 13.2826C80.1363 13.1156 79.8765 13.0284 79.611 13.0372H79.4694L79.2081 13.0688L78.9834 13.0955C78.3778 13.161 77.8748 13.2145 77.4572 13.2533C76.6904 13.3164 75.9383 13.3553 75.2228 13.3674L74.9688 13.3796L74.5561 13.3553C74.054 13.3335 73.5705 13.1596 73.1704 12.857C72.7704 12.5544 72.4729 12.1374 72.3178 11.662C72.1626 11.1865 72.1573 10.6753 72.3025 10.1968C72.4476 9.71829 72.7364 9.29529 73.13 8.98447C73.2497 8.8922 73.3474 8.81207 73.4401 8.74165L73.6379 8.58139C74.2313 8.16859 74.8589 7.76065 75.5158 7.36727C75.8797 7.15359 76.3168 6.90348 76.8443 6.60238L77.0421 6.49311L77.3229 6.3377L77.3888 6.28428C77.5156 6.19765 77.6226 6.08553 77.703 5.95517C77.7834 5.82482 77.8354 5.67913 77.8556 5.52754C77.8759 5.37594 77.8639 5.22181 77.8204 5.07512C77.777 4.92843 77.703 4.79243 77.6034 4.67594C77.5038 4.55945 77.3807 4.46505 77.242 4.39884C77.1034 4.33264 76.9523 4.29611 76.7986 4.29161C76.6449 4.28711 76.4919 4.31475 76.3496 4.37274C76.2073 4.43072 76.0788 4.51776 75.9725 4.62823L75.9139 4.68893L75.8821 4.72293C73.7266 7.30277 71.2044 9.55639 68.395 11.4127C68.6968 11.7044 68.937 12.0532 69.1013 12.4385C69.2657 12.8238 69.351 13.2379 69.3523 13.6564Z" fill="#A67CB7"></path><path id="Vector_19" d="M71.7553 19.5667C71.6793 19.5551 71.6026 19.5494 71.5257 19.5497C71.1594 19.5522 70.8083 19.6955 70.5458 19.9496C70.2833 20.2037 70.1299 20.5488 70.1175 20.9129C70.1052 21.2769 70.2349 21.6316 70.4795 21.9027C70.7242 22.1738 71.0648 22.3403 71.4301 22.3674C71.7954 22.3944 72.1571 22.2799 72.4394 22.0479C72.7218 21.8158 72.9029 21.4841 72.9449 21.1223C72.9869 20.7604 72.8866 20.3964 72.6648 20.1065C72.4431 19.8165 72.1172 19.6231 71.7553 19.5667Z" fill="#6886B8"></path><path id="Vector_20" d="M66.644 16.7668C67.8183 19.9069 68.5274 23.2 68.749 26.5429V26.5842V26.6206V26.6692C68.7717 26.8445 68.8381 27.0114 68.9419 27.1548C69.097 27.3684 69.3242 27.5192 69.582 27.5797C69.8399 27.6402 70.111 27.6063 70.3457 27.4841C70.5804 27.362 70.7629 27.1598 70.8599 26.9147C70.9568 26.6696 70.9617 26.3979 70.8736 26.1495L70.8247 26.016C70.7881 25.9431 70.7514 25.8606 70.7148 25.7731L70.6196 25.5692C70.3754 25.0155 70.1654 24.5566 69.9969 24.1729C69.7014 23.4663 69.4328 22.767 69.2008 22.0944C69.1764 22.0021 69.1544 21.922 69.1349 21.8515C69.1153 21.7811 69.0738 21.6087 69.0323 21.4703C68.9015 20.9896 68.9209 20.4807 69.088 20.0112C69.2551 19.5417 69.562 19.134 69.9679 18.8422C70.3737 18.5504 70.8593 18.3884 71.36 18.3776C71.8607 18.3669 72.3529 18.5081 72.771 18.7823L73.108 19.0008C73.1812 19.0445 73.2496 19.0882 73.3204 19.1368C73.9016 19.5714 74.4852 20.0425 75.0664 20.5379C75.3814 20.8171 75.7575 21.1522 76.2068 21.5602L76.3729 21.7131C76.451 21.7836 76.5292 21.854 76.6171 21.9293L76.6879 21.9778C76.8097 22.0739 76.9506 22.1433 77.1013 22.1814C77.252 22.2195 77.4091 22.2254 77.5623 22.1987C77.7155 22.1721 77.8612 22.1135 77.99 22.0268C78.1187 21.9401 78.2276 21.8273 78.3093 21.6958C78.3911 21.5642 78.4439 21.417 78.4643 21.2637C78.4847 21.1104 78.4723 20.9546 78.4277 20.8064C78.3832 20.6583 78.3077 20.5212 78.206 20.4042C78.1044 20.2872 77.979 20.1929 77.8381 20.1275L77.7184 20.0741C74.5924 18.8281 71.6648 17.1374 69.0274 15.0549C68.7984 15.5102 68.4621 15.9037 68.047 16.2018C67.632 16.4999 67.1507 16.6937 66.644 16.7668Z" fill="#6886B8"></path><path id="Vector_21" d="M56.273 57.8792C55.8896 59.0448 54.9543 59.7004 53.6869 59.7004C52.9379 59.6868 52.2237 59.3832 51.6963 58.854C51.1689 58.3249 50.8699 57.6121 50.8629 56.8672C50.8559 56.1222 51.1415 55.404 51.6588 54.8651C52.1762 54.3263 52.8845 54.0094 53.6332 53.9819C55.0495 53.9819 56.4122 55.1475 56.4024 57.0852H51.7895C51.8185 57.5683 52.0302 58.0226 52.3822 58.3568C52.7341 58.6911 53.2003 58.8805 53.6869 58.887C54.0291 58.903 54.3682 58.8152 54.6591 58.6352C54.95 58.4552 55.179 58.1916 55.3157 57.8792H56.273ZM55.4012 56.2815C55.3142 55.874 55.0931 55.5069 54.773 55.2383C54.4528 54.9696 54.0518 54.8146 53.6332 54.7978C53.2119 54.8136 52.8077 54.9678 52.4838 55.2362C52.16 55.5046 51.9347 55.8722 51.8432 56.2815H55.4012Z" fill="#6886B8"></path><path id="Vector_22" d="M65.0716 59.5741H64.1681V56.1746C64.1681 55.3271 63.7627 54.8075 62.9203 54.8075C62.1755 54.8075 61.6333 55.4218 61.6333 56.2377V59.5741H60.7371V56.1746C60.7371 55.3271 60.3122 54.8075 59.5039 54.8075C58.7567 54.8075 58.2024 55.4218 58.2024 56.2377V59.5741H57.2988V54.1203H58.1706V54.7128C58.3388 54.484 58.5595 54.2986 58.8143 54.1718C59.0692 54.0451 59.3509 53.9808 59.6358 53.9843C59.9768 53.97 60.3152 54.0494 60.6138 54.2139C60.9124 54.3784 61.1595 54.6216 61.3281 54.9168C61.5039 54.6242 61.7549 54.3836 62.0554 54.2197C62.3559 54.0558 62.6949 53.9745 63.0375 53.9843C64.3049 53.9843 65.0716 54.8415 65.0716 56.1989V59.5741Z" fill="#6886B8"></path><path id="Vector_23" d="M69.1545 59.7004C68.7911 59.6955 68.4338 59.6071 68.1105 59.4419C67.7872 59.2768 67.5068 59.0395 67.2912 58.7486V62H66.3853V54.1203H67.257V54.9897C67.4705 54.6843 67.7538 54.4337 68.0837 54.2585C68.4135 54.0833 68.7805 53.9885 69.1545 53.9819C70.7295 53.9819 71.8919 55.264 71.8919 56.8302C71.8919 58.3965 70.7295 59.7004 69.1545 59.7004ZM69.1545 54.8075C68.141 54.8075 67.2912 55.7181 67.2912 56.8302C67.2912 57.9424 68.141 58.8748 69.1545 58.8748C70.1679 58.8748 70.9859 57.9545 70.9859 56.8302C70.9859 55.706 70.1752 54.8075 69.1545 54.8075Z" fill="#6886B8"></path><path id="Vector_24" d="M73.7673 59.5742H72.8613V51.6946H73.7673V59.5742Z" fill="#6886B8"></path><path id="Vector_25" d="M80.2432 56.8618C80.2542 57.2289 80.191 57.5944 80.0573 57.9367C79.9237 58.279 79.7223 58.5911 79.465 58.8546C79.2078 59.1181 78.9001 59.3275 78.5599 59.4706C78.2198 59.6136 77.8543 59.6873 77.485 59.6873C77.1157 59.6873 76.7502 59.6136 76.4101 59.4706C76.07 59.3275 75.7622 59.1181 75.505 58.8546C75.2478 58.5911 75.0464 58.279 74.9127 57.9367C74.779 57.5944 74.7158 57.2289 74.7268 56.8618C74.7268 55.2738 75.9283 53.9819 77.4838 53.9819C79.0393 53.9819 80.2432 55.2738 80.2432 56.8618ZM79.3373 56.8618C79.3373 55.7303 78.507 54.8075 77.4838 54.8075C76.4606 54.8075 75.6425 55.7303 75.6425 56.8618C75.6425 57.9934 76.4728 58.8748 77.4838 58.8748C78.4948 58.8748 79.3373 57.9739 79.3373 56.8618Z" fill="#6886B8"></path><path id="Vector_26" d="M83.0665 60.6232C82.6832 61.6382 82.0751 62.051 80.9786 61.9368V61.1088C81.6917 61.1622 81.9921 60.9413 82.2265 60.3051L82.5122 59.5426L80.4146 54.1204H81.3913L82.9908 58.462L84.5562 54.1204H85.5329L83.0665 60.6232Z" fill="#6886B8"></path><path id="Vector_27" d="M91.086 57.8792C90.7026 59.0448 89.7649 59.7004 88.4975 59.7004C87.7484 59.6868 87.0342 59.3832 86.5068 58.854C85.9795 58.3249 85.6805 57.6121 85.6735 56.8672C85.6665 56.1222 85.952 55.404 86.4694 54.8651C86.9867 54.3263 87.6951 54.0094 88.4437 53.9819C89.8601 53.9819 91.2227 55.1475 91.213 57.0852H86.6049C86.6333 57.5681 86.8445 58.0224 87.1961 58.3567C87.5477 58.6909 88.0135 58.8804 88.4999 58.887C88.8421 58.903 89.1812 58.8152 89.4721 58.6352C89.7629 58.4552 89.992 58.1916 90.1287 57.8792H91.086ZM90.2117 56.2815C90.1251 55.8738 89.9042 55.5065 89.5839 55.2378C89.2637 54.969 88.8625 54.8142 88.4437 54.7978C88.0224 54.8136 87.6182 54.9678 87.2944 55.2362C86.9705 55.5046 86.7453 55.8722 86.6538 56.2815H90.2117Z" fill="#6886B8"></path><path id="Vector_28" d="M97.1055 57.8792C96.7221 59.0448 95.7844 59.7004 94.5194 59.7004C93.7704 59.6868 93.0562 59.3832 92.5288 58.854C92.0014 58.3249 91.7024 57.6121 91.6954 56.8672C91.6884 56.1222 91.974 55.404 92.4913 54.8651C93.0087 54.3263 93.717 54.0094 94.4657 53.9819C95.8821 53.9819 97.2447 55.1475 97.2349 57.0852H92.622C92.651 57.5683 92.8627 58.0226 93.2147 58.3568C93.5667 58.6911 94.0328 58.8805 94.5194 58.887C94.8617 58.903 95.2007 58.8152 95.4916 58.6352C95.7825 58.4552 96.0115 58.1916 96.1482 57.8792H97.1055ZM96.2337 56.2815C96.1467 55.874 95.9257 55.5069 95.6055 55.2383C95.2853 54.9696 94.8843 54.8146 94.4657 54.7978C94.0444 54.8136 93.6402 54.9678 93.3164 55.2362C92.9925 55.5046 92.7672 55.8722 92.6758 56.2815H96.2337Z" fill="#6886B8"></path><path id="Vector_29" d="M100.133 59.7126C98.8025 59.7126 97.833 59.0011 97.6914 57.8477H98.6071C98.7244 58.4839 99.352 58.8748 100.141 58.8748C100.993 58.8748 101.513 58.462 101.513 57.9861C101.513 57.6049 101.364 57.3183 100.024 57.1386C98.6829 56.9589 97.8819 56.6287 97.8819 55.6016C97.8819 54.8197 98.5632 53.9819 100.033 53.9819C101.301 53.9819 102.153 54.6181 102.27 55.6817H101.342C101.215 55.0989 100.693 54.8027 100.021 54.8027C99.2885 54.8027 98.7756 55.1426 98.7756 55.5651C98.7756 55.9877 99.0833 56.0945 100.16 56.2645C101.381 56.4563 102.375 56.6894 102.375 57.9278C102.38 59.0229 101.442 59.7126 100.133 59.7126Z" fill="#6886B8"></path><path id="Vector_30" d="M107.269 54.9994V59.5741H106.375V54.9994H105.63V54.1495H106.375V53.9358C106.375 53.1418 106.588 52.5396 107.003 52.168C107.211 51.9898 107.457 51.8601 107.722 51.7887C107.988 51.7173 108.266 51.7058 108.536 51.7552V52.5711C108.374 52.5423 108.206 52.5491 108.047 52.5911C107.887 52.633 107.738 52.7091 107.611 52.814C107.335 53.0689 107.269 53.5667 107.269 53.9358V54.1495H110.155V59.5814H109.262V54.9994H107.269ZM110.155 53.2996H109.262V52.2287H110.155V53.2996Z" fill="#6886B8"></path><path id="Vector_31" d="M114.172 54.8779C113.225 54.8245 112.417 55.3223 112.417 56.4126V59.5693H111.511V54.1203H112.383V54.7346C112.59 54.4665 112.864 54.2569 113.178 54.1266C113.492 53.9963 113.835 53.9498 114.172 53.9916V54.8779Z" fill="#6886B8"></path><path id="Vector_32" d="M116.922 59.7126C115.591 59.7126 114.622 59.0011 114.48 57.8477H115.396C115.513 58.4839 116.141 58.8748 116.929 58.8748C117.782 58.8748 118.302 58.462 118.302 57.9861C118.302 57.6049 118.153 57.3183 116.812 57.1386C115.471 56.9589 114.67 56.6287 114.67 55.6016C114.67 54.8197 115.352 53.9819 116.822 53.9819C118.089 53.9819 118.941 54.6181 119.059 55.6817H118.143C118.016 55.0989 117.493 54.8027 116.822 54.8027C116.089 54.8027 115.576 55.1426 115.576 55.5651C115.576 55.9877 115.884 56.0945 116.961 56.2645C118.182 56.4563 119.176 56.6894 119.176 57.9278C119.169 59.0229 118.231 59.7126 116.922 59.7126Z" fill="#6886B8"></path><path id="Vector_33" d="M122.375 59.5742C121.098 59.7223 120.214 58.9696 120.214 57.583V54.9776H119.481V54.1204H120.214V52.9548H121.107V54.1204H122.355V54.9776H121.107V57.583C121.107 58.5543 121.706 58.7972 122.375 58.7486V59.5742Z" fill="#6886B8"></path></g></g></g><defs><clipPath id="clip0_1719_6108"><rect width="125" height="62" fill="white"></rect></clipPath></defs></svg>